%TF.GenerationSoftware,KiCad,Pcbnew,10.0.1*%
%TF.CreationDate,2026-06-26T15:36:39-07:00*%
%TF.ProjectId,LPT Converter,4c505420-436f-46e7-9665-727465722e6b,rev?*%
%TF.SameCoordinates,Original*%
%TF.FileFunction,Soldermask,Top*%
%TF.FilePolarity,Negative*%
%FSLAX46Y46*%
G04 Gerber Fmt 4.6, Leading zero omitted, Abs format (unit mm)*
G04 Created by KiCad (PCBNEW 10.0.1) date 2026-06-26 15:36:39*
%MOMM*%
%LPD*%
G01*
G04 APERTURE LIST*
G04 Aperture macros list*
%AMRoundRect*
0 Rectangle with rounded corners*
0 $1 Rounding radius*
0 $2 $3 $4 $5 $6 $7 $8 $9 X,Y pos of 4 corners*
0 Add a 4 corners polygon primitive as box body*
4,1,4,$2,$3,$4,$5,$6,$7,$8,$9,$2,$3,0*
0 Add four circle primitives for the rounded corners*
1,1,$1+$1,$2,$3*
1,1,$1+$1,$4,$5*
1,1,$1+$1,$6,$7*
1,1,$1+$1,$8,$9*
0 Add four rect primitives between the rounded corners*
20,1,$1+$1,$2,$3,$4,$5,0*
20,1,$1+$1,$4,$5,$6,$7,0*
20,1,$1+$1,$6,$7,$8,$9,0*
20,1,$1+$1,$8,$9,$2,$3,0*%
G04 Aperture macros list end*
%ADD10C,1.600000*%
%ADD11RoundRect,0.250000X1.490000X-0.673333X1.490000X0.673333X-1.490000X0.673333X-1.490000X-0.673333X0*%
%ADD12RoundRect,0.250000X-1.490000X0.673333X-1.490000X-0.673333X1.490000X-0.673333X1.490000X0.673333X0*%
G04 APERTURE END LIST*
D10*
%TO.C,R3*%
X97600000Y-62200000D03*
X105220000Y-62200000D03*
%TD*%
%TO.C,R8*%
X97600000Y-77200000D03*
X105220000Y-77200000D03*
%TD*%
%TO.C,R5*%
X97600000Y-68200000D03*
X105220000Y-68200000D03*
%TD*%
%TO.C,R1*%
X97600000Y-56200000D03*
X105220000Y-56200000D03*
%TD*%
%TO.C,R4*%
X97600000Y-65200000D03*
X105220000Y-65200000D03*
%TD*%
%TO.C,R2*%
X97600000Y-59200000D03*
X105220000Y-59200000D03*
%TD*%
%TO.C,R7*%
X97600000Y-74200000D03*
X105220000Y-74200000D03*
%TD*%
D11*
%TO.C,J2*%
X109800000Y-86640000D03*
X109800000Y-83870000D03*
X109800000Y-81100000D03*
X109800000Y-78330000D03*
X109800000Y-75560000D03*
X109800000Y-72790000D03*
X109800000Y-70020000D03*
X109800000Y-67250000D03*
X109800000Y-64480000D03*
X109800000Y-61710000D03*
X109800000Y-58940000D03*
X109800000Y-56170000D03*
X109800000Y-53400000D03*
%TD*%
D12*
%TO.C,J1*%
X93800000Y-53415000D03*
X93800000Y-56185000D03*
X93800000Y-58955000D03*
X93800000Y-61725000D03*
X93800000Y-64495000D03*
X93800000Y-67265000D03*
X93800000Y-70035000D03*
X93800000Y-72805000D03*
X93800000Y-75575000D03*
X93800000Y-78345000D03*
X93800000Y-81115000D03*
X93800000Y-83885000D03*
X93800000Y-86655000D03*
%TD*%
D10*
%TO.C,R6*%
X97600000Y-71200000D03*
X105220000Y-71200000D03*
%TD*%
M02*
