%TF.GenerationSoftware,KiCad,Pcbnew,10.0.1*%
%TF.CreationDate,2026-06-26T15:36:39-07:00*%
%TF.ProjectId,LPT Converter,4c505420-436f-46e7-9665-727465722e6b,rev?*%
%TF.SameCoordinates,Original*%
%TF.FileFunction,Legend,Top*%
%TF.FilePolarity,Positive*%
%FSLAX46Y46*%
G04 Gerber Fmt 4.6, Leading zero omitted, Abs format (unit mm)*
G04 Created by KiCad (PCBNEW 10.0.1) date 2026-06-26 15:36:39*
%MOMM*%
%LPD*%
G01*
G04 APERTURE LIST*
%ADD10C,0.500000*%
%ADD11C,0.150000*%
%ADD12C,0.120000*%
G04 APERTURE END LIST*
D10*
X99539462Y-87242481D02*
X99539462Y-88194862D01*
X99539462Y-88194862D02*
X97539462Y-88194862D01*
X99539462Y-86575814D02*
X97539462Y-86575814D01*
X97539462Y-86575814D02*
X97539462Y-85813909D01*
X97539462Y-85813909D02*
X97634700Y-85623433D01*
X97634700Y-85623433D02*
X97729938Y-85528195D01*
X97729938Y-85528195D02*
X97920414Y-85432957D01*
X97920414Y-85432957D02*
X98206128Y-85432957D01*
X98206128Y-85432957D02*
X98396604Y-85528195D01*
X98396604Y-85528195D02*
X98491843Y-85623433D01*
X98491843Y-85623433D02*
X98587081Y-85813909D01*
X98587081Y-85813909D02*
X98587081Y-86575814D01*
X97539462Y-84861528D02*
X97539462Y-83718671D01*
X99539462Y-84290100D02*
X97539462Y-84290100D01*
X104931619Y-87528195D02*
X104931619Y-88194862D01*
X105979238Y-88194862D02*
X103979238Y-88194862D01*
X103979238Y-88194862D02*
X103979238Y-87242481D01*
X103979238Y-86671052D02*
X103979238Y-85337719D01*
X103979238Y-85337719D02*
X105979238Y-86671052D01*
X105979238Y-86671052D02*
X105979238Y-85337719D01*
X105217333Y-84575814D02*
X105217333Y-83052005D01*
X105979238Y-81052005D02*
X105979238Y-82194862D01*
X105979238Y-81623434D02*
X103979238Y-81623434D01*
X103979238Y-81623434D02*
X104264952Y-81813910D01*
X104264952Y-81813910D02*
X104455428Y-82004386D01*
X104455428Y-82004386D02*
X104550666Y-82194862D01*
D11*
X101243333Y-62629819D02*
X100910000Y-62153628D01*
X100671905Y-62629819D02*
X100671905Y-61629819D01*
X100671905Y-61629819D02*
X101052857Y-61629819D01*
X101052857Y-61629819D02*
X101148095Y-61677438D01*
X101148095Y-61677438D02*
X101195714Y-61725057D01*
X101195714Y-61725057D02*
X101243333Y-61820295D01*
X101243333Y-61820295D02*
X101243333Y-61963152D01*
X101243333Y-61963152D02*
X101195714Y-62058390D01*
X101195714Y-62058390D02*
X101148095Y-62106009D01*
X101148095Y-62106009D02*
X101052857Y-62153628D01*
X101052857Y-62153628D02*
X100671905Y-62153628D01*
X101576667Y-61629819D02*
X102195714Y-61629819D01*
X102195714Y-61629819D02*
X101862381Y-62010771D01*
X101862381Y-62010771D02*
X102005238Y-62010771D01*
X102005238Y-62010771D02*
X102100476Y-62058390D01*
X102100476Y-62058390D02*
X102148095Y-62106009D01*
X102148095Y-62106009D02*
X102195714Y-62201247D01*
X102195714Y-62201247D02*
X102195714Y-62439342D01*
X102195714Y-62439342D02*
X102148095Y-62534580D01*
X102148095Y-62534580D02*
X102100476Y-62582200D01*
X102100476Y-62582200D02*
X102005238Y-62629819D01*
X102005238Y-62629819D02*
X101719524Y-62629819D01*
X101719524Y-62629819D02*
X101624286Y-62582200D01*
X101624286Y-62582200D02*
X101576667Y-62534580D01*
X101243333Y-77579819D02*
X100910000Y-77103628D01*
X100671905Y-77579819D02*
X100671905Y-76579819D01*
X100671905Y-76579819D02*
X101052857Y-76579819D01*
X101052857Y-76579819D02*
X101148095Y-76627438D01*
X101148095Y-76627438D02*
X101195714Y-76675057D01*
X101195714Y-76675057D02*
X101243333Y-76770295D01*
X101243333Y-76770295D02*
X101243333Y-76913152D01*
X101243333Y-76913152D02*
X101195714Y-77008390D01*
X101195714Y-77008390D02*
X101148095Y-77056009D01*
X101148095Y-77056009D02*
X101052857Y-77103628D01*
X101052857Y-77103628D02*
X100671905Y-77103628D01*
X101814762Y-77008390D02*
X101719524Y-76960771D01*
X101719524Y-76960771D02*
X101671905Y-76913152D01*
X101671905Y-76913152D02*
X101624286Y-76817914D01*
X101624286Y-76817914D02*
X101624286Y-76770295D01*
X101624286Y-76770295D02*
X101671905Y-76675057D01*
X101671905Y-76675057D02*
X101719524Y-76627438D01*
X101719524Y-76627438D02*
X101814762Y-76579819D01*
X101814762Y-76579819D02*
X102005238Y-76579819D01*
X102005238Y-76579819D02*
X102100476Y-76627438D01*
X102100476Y-76627438D02*
X102148095Y-76675057D01*
X102148095Y-76675057D02*
X102195714Y-76770295D01*
X102195714Y-76770295D02*
X102195714Y-76817914D01*
X102195714Y-76817914D02*
X102148095Y-76913152D01*
X102148095Y-76913152D02*
X102100476Y-76960771D01*
X102100476Y-76960771D02*
X102005238Y-77008390D01*
X102005238Y-77008390D02*
X101814762Y-77008390D01*
X101814762Y-77008390D02*
X101719524Y-77056009D01*
X101719524Y-77056009D02*
X101671905Y-77103628D01*
X101671905Y-77103628D02*
X101624286Y-77198866D01*
X101624286Y-77198866D02*
X101624286Y-77389342D01*
X101624286Y-77389342D02*
X101671905Y-77484580D01*
X101671905Y-77484580D02*
X101719524Y-77532200D01*
X101719524Y-77532200D02*
X101814762Y-77579819D01*
X101814762Y-77579819D02*
X102005238Y-77579819D01*
X102005238Y-77579819D02*
X102100476Y-77532200D01*
X102100476Y-77532200D02*
X102148095Y-77484580D01*
X102148095Y-77484580D02*
X102195714Y-77389342D01*
X102195714Y-77389342D02*
X102195714Y-77198866D01*
X102195714Y-77198866D02*
X102148095Y-77103628D01*
X102148095Y-77103628D02*
X102100476Y-77056009D01*
X102100476Y-77056009D02*
X102005238Y-77008390D01*
X101243333Y-68729819D02*
X100910000Y-68253628D01*
X100671905Y-68729819D02*
X100671905Y-67729819D01*
X100671905Y-67729819D02*
X101052857Y-67729819D01*
X101052857Y-67729819D02*
X101148095Y-67777438D01*
X101148095Y-67777438D02*
X101195714Y-67825057D01*
X101195714Y-67825057D02*
X101243333Y-67920295D01*
X101243333Y-67920295D02*
X101243333Y-68063152D01*
X101243333Y-68063152D02*
X101195714Y-68158390D01*
X101195714Y-68158390D02*
X101148095Y-68206009D01*
X101148095Y-68206009D02*
X101052857Y-68253628D01*
X101052857Y-68253628D02*
X100671905Y-68253628D01*
X102148095Y-67729819D02*
X101671905Y-67729819D01*
X101671905Y-67729819D02*
X101624286Y-68206009D01*
X101624286Y-68206009D02*
X101671905Y-68158390D01*
X101671905Y-68158390D02*
X101767143Y-68110771D01*
X101767143Y-68110771D02*
X102005238Y-68110771D01*
X102005238Y-68110771D02*
X102100476Y-68158390D01*
X102100476Y-68158390D02*
X102148095Y-68206009D01*
X102148095Y-68206009D02*
X102195714Y-68301247D01*
X102195714Y-68301247D02*
X102195714Y-68539342D01*
X102195714Y-68539342D02*
X102148095Y-68634580D01*
X102148095Y-68634580D02*
X102100476Y-68682200D01*
X102100476Y-68682200D02*
X102005238Y-68729819D01*
X102005238Y-68729819D02*
X101767143Y-68729819D01*
X101767143Y-68729819D02*
X101671905Y-68682200D01*
X101671905Y-68682200D02*
X101624286Y-68634580D01*
X101243333Y-56654819D02*
X100910000Y-56178628D01*
X100671905Y-56654819D02*
X100671905Y-55654819D01*
X100671905Y-55654819D02*
X101052857Y-55654819D01*
X101052857Y-55654819D02*
X101148095Y-55702438D01*
X101148095Y-55702438D02*
X101195714Y-55750057D01*
X101195714Y-55750057D02*
X101243333Y-55845295D01*
X101243333Y-55845295D02*
X101243333Y-55988152D01*
X101243333Y-55988152D02*
X101195714Y-56083390D01*
X101195714Y-56083390D02*
X101148095Y-56131009D01*
X101148095Y-56131009D02*
X101052857Y-56178628D01*
X101052857Y-56178628D02*
X100671905Y-56178628D01*
X102195714Y-56654819D02*
X101624286Y-56654819D01*
X101910000Y-56654819D02*
X101910000Y-55654819D01*
X101910000Y-55654819D02*
X101814762Y-55797676D01*
X101814762Y-55797676D02*
X101719524Y-55892914D01*
X101719524Y-55892914D02*
X101624286Y-55940533D01*
X101243333Y-65579819D02*
X100910000Y-65103628D01*
X100671905Y-65579819D02*
X100671905Y-64579819D01*
X100671905Y-64579819D02*
X101052857Y-64579819D01*
X101052857Y-64579819D02*
X101148095Y-64627438D01*
X101148095Y-64627438D02*
X101195714Y-64675057D01*
X101195714Y-64675057D02*
X101243333Y-64770295D01*
X101243333Y-64770295D02*
X101243333Y-64913152D01*
X101243333Y-64913152D02*
X101195714Y-65008390D01*
X101195714Y-65008390D02*
X101148095Y-65056009D01*
X101148095Y-65056009D02*
X101052857Y-65103628D01*
X101052857Y-65103628D02*
X100671905Y-65103628D01*
X102100476Y-64913152D02*
X102100476Y-65579819D01*
X101862381Y-64532200D02*
X101624286Y-65246485D01*
X101624286Y-65246485D02*
X102243333Y-65246485D01*
X101243333Y-59679819D02*
X100910000Y-59203628D01*
X100671905Y-59679819D02*
X100671905Y-58679819D01*
X100671905Y-58679819D02*
X101052857Y-58679819D01*
X101052857Y-58679819D02*
X101148095Y-58727438D01*
X101148095Y-58727438D02*
X101195714Y-58775057D01*
X101195714Y-58775057D02*
X101243333Y-58870295D01*
X101243333Y-58870295D02*
X101243333Y-59013152D01*
X101243333Y-59013152D02*
X101195714Y-59108390D01*
X101195714Y-59108390D02*
X101148095Y-59156009D01*
X101148095Y-59156009D02*
X101052857Y-59203628D01*
X101052857Y-59203628D02*
X100671905Y-59203628D01*
X101624286Y-58775057D02*
X101671905Y-58727438D01*
X101671905Y-58727438D02*
X101767143Y-58679819D01*
X101767143Y-58679819D02*
X102005238Y-58679819D01*
X102005238Y-58679819D02*
X102100476Y-58727438D01*
X102100476Y-58727438D02*
X102148095Y-58775057D01*
X102148095Y-58775057D02*
X102195714Y-58870295D01*
X102195714Y-58870295D02*
X102195714Y-58965533D01*
X102195714Y-58965533D02*
X102148095Y-59108390D01*
X102148095Y-59108390D02*
X101576667Y-59679819D01*
X101576667Y-59679819D02*
X102195714Y-59679819D01*
X101243333Y-74629819D02*
X100910000Y-74153628D01*
X100671905Y-74629819D02*
X100671905Y-73629819D01*
X100671905Y-73629819D02*
X101052857Y-73629819D01*
X101052857Y-73629819D02*
X101148095Y-73677438D01*
X101148095Y-73677438D02*
X101195714Y-73725057D01*
X101195714Y-73725057D02*
X101243333Y-73820295D01*
X101243333Y-73820295D02*
X101243333Y-73963152D01*
X101243333Y-73963152D02*
X101195714Y-74058390D01*
X101195714Y-74058390D02*
X101148095Y-74106009D01*
X101148095Y-74106009D02*
X101052857Y-74153628D01*
X101052857Y-74153628D02*
X100671905Y-74153628D01*
X101576667Y-73629819D02*
X102243333Y-73629819D01*
X102243333Y-73629819D02*
X101814762Y-74629819D01*
X105854819Y-79833333D02*
X106569104Y-79833333D01*
X106569104Y-79833333D02*
X106711961Y-79880952D01*
X106711961Y-79880952D02*
X106807200Y-79976190D01*
X106807200Y-79976190D02*
X106854819Y-80119047D01*
X106854819Y-80119047D02*
X106854819Y-80214285D01*
X105950057Y-79404761D02*
X105902438Y-79357142D01*
X105902438Y-79357142D02*
X105854819Y-79261904D01*
X105854819Y-79261904D02*
X105854819Y-79023809D01*
X105854819Y-79023809D02*
X105902438Y-78928571D01*
X105902438Y-78928571D02*
X105950057Y-78880952D01*
X105950057Y-78880952D02*
X106045295Y-78833333D01*
X106045295Y-78833333D02*
X106140533Y-78833333D01*
X106140533Y-78833333D02*
X106283390Y-78880952D01*
X106283390Y-78880952D02*
X106854819Y-79452380D01*
X106854819Y-79452380D02*
X106854819Y-78833333D01*
X96854819Y-79933333D02*
X97569104Y-79933333D01*
X97569104Y-79933333D02*
X97711961Y-79980952D01*
X97711961Y-79980952D02*
X97807200Y-80076190D01*
X97807200Y-80076190D02*
X97854819Y-80219047D01*
X97854819Y-80219047D02*
X97854819Y-80314285D01*
X97854819Y-78933333D02*
X97854819Y-79504761D01*
X97854819Y-79219047D02*
X96854819Y-79219047D01*
X96854819Y-79219047D02*
X96997676Y-79314285D01*
X96997676Y-79314285D02*
X97092914Y-79409523D01*
X97092914Y-79409523D02*
X97140533Y-79504761D01*
X101243333Y-71679819D02*
X100910000Y-71203628D01*
X100671905Y-71679819D02*
X100671905Y-70679819D01*
X100671905Y-70679819D02*
X101052857Y-70679819D01*
X101052857Y-70679819D02*
X101148095Y-70727438D01*
X101148095Y-70727438D02*
X101195714Y-70775057D01*
X101195714Y-70775057D02*
X101243333Y-70870295D01*
X101243333Y-70870295D02*
X101243333Y-71013152D01*
X101243333Y-71013152D02*
X101195714Y-71108390D01*
X101195714Y-71108390D02*
X101148095Y-71156009D01*
X101148095Y-71156009D02*
X101052857Y-71203628D01*
X101052857Y-71203628D02*
X100671905Y-71203628D01*
X102100476Y-70679819D02*
X101910000Y-70679819D01*
X101910000Y-70679819D02*
X101814762Y-70727438D01*
X101814762Y-70727438D02*
X101767143Y-70775057D01*
X101767143Y-70775057D02*
X101671905Y-70917914D01*
X101671905Y-70917914D02*
X101624286Y-71108390D01*
X101624286Y-71108390D02*
X101624286Y-71489342D01*
X101624286Y-71489342D02*
X101671905Y-71584580D01*
X101671905Y-71584580D02*
X101719524Y-71632200D01*
X101719524Y-71632200D02*
X101814762Y-71679819D01*
X101814762Y-71679819D02*
X102005238Y-71679819D01*
X102005238Y-71679819D02*
X102100476Y-71632200D01*
X102100476Y-71632200D02*
X102148095Y-71584580D01*
X102148095Y-71584580D02*
X102195714Y-71489342D01*
X102195714Y-71489342D02*
X102195714Y-71251247D01*
X102195714Y-71251247D02*
X102148095Y-71156009D01*
X102148095Y-71156009D02*
X102100476Y-71108390D01*
X102100476Y-71108390D02*
X102005238Y-71060771D01*
X102005238Y-71060771D02*
X101814762Y-71060771D01*
X101814762Y-71060771D02*
X101719524Y-71108390D01*
X101719524Y-71108390D02*
X101671905Y-71156009D01*
X101671905Y-71156009D02*
X101624286Y-71251247D01*
%TO.C,R3*%
D12*
X98140000Y-60830000D02*
X104680000Y-60830000D01*
X98140000Y-61160000D02*
X98140000Y-60830000D01*
X98140000Y-63240000D02*
X98140000Y-63570000D01*
X98140000Y-63570000D02*
X104680000Y-63570000D01*
X104680000Y-60830000D02*
X104680000Y-61160000D01*
X104680000Y-63570000D02*
X104680000Y-63240000D01*
%TO.C,R8*%
X98140000Y-75830000D02*
X104680000Y-75830000D01*
X98140000Y-76160000D02*
X98140000Y-75830000D01*
X98140000Y-78240000D02*
X98140000Y-78570000D01*
X98140000Y-78570000D02*
X104680000Y-78570000D01*
X104680000Y-75830000D02*
X104680000Y-76160000D01*
X104680000Y-78570000D02*
X104680000Y-78240000D01*
%TO.C,R5*%
X98140000Y-66830000D02*
X104680000Y-66830000D01*
X98140000Y-67160000D02*
X98140000Y-66830000D01*
X98140000Y-69240000D02*
X98140000Y-69570000D01*
X98140000Y-69570000D02*
X104680000Y-69570000D01*
X104680000Y-66830000D02*
X104680000Y-67160000D01*
X104680000Y-69570000D02*
X104680000Y-69240000D01*
%TO.C,R1*%
X98140000Y-54830000D02*
X104680000Y-54830000D01*
X98140000Y-55160000D02*
X98140000Y-54830000D01*
X98140000Y-57240000D02*
X98140000Y-57570000D01*
X98140000Y-57570000D02*
X104680000Y-57570000D01*
X104680000Y-54830000D02*
X104680000Y-55160000D01*
X104680000Y-57570000D02*
X104680000Y-57240000D01*
%TO.C,R4*%
X98140000Y-63830000D02*
X104680000Y-63830000D01*
X98140000Y-64160000D02*
X98140000Y-63830000D01*
X98140000Y-66240000D02*
X98140000Y-66570000D01*
X98140000Y-66570000D02*
X104680000Y-66570000D01*
X104680000Y-63830000D02*
X104680000Y-64160000D01*
X104680000Y-66570000D02*
X104680000Y-66240000D01*
%TO.C,R2*%
X98140000Y-57830000D02*
X104680000Y-57830000D01*
X98140000Y-58160000D02*
X98140000Y-57830000D01*
X98140000Y-60240000D02*
X98140000Y-60570000D01*
X98140000Y-60570000D02*
X104680000Y-60570000D01*
X104680000Y-57830000D02*
X104680000Y-58160000D01*
X104680000Y-60570000D02*
X104680000Y-60240000D01*
%TO.C,R7*%
X98140000Y-72830000D02*
X104680000Y-72830000D01*
X98140000Y-73160000D02*
X98140000Y-72830000D01*
X98140000Y-75240000D02*
X98140000Y-75570000D01*
X98140000Y-75570000D02*
X104680000Y-75570000D01*
X104680000Y-72830000D02*
X104680000Y-73160000D01*
X104680000Y-75570000D02*
X104680000Y-75240000D01*
%TO.C,J2*%
X107560000Y-51976667D02*
X107560000Y-56170000D01*
X107800000Y-52216667D02*
X107800000Y-87823333D01*
X107800000Y-87823333D02*
X111540000Y-87823333D01*
X109800000Y-51976667D02*
X107560000Y-51976667D01*
X111540000Y-52216667D02*
X107800000Y-52216667D01*
%TO.C,J1*%
X92060000Y-87838333D02*
X95800000Y-87838333D01*
X93800000Y-88078333D02*
X96040000Y-88078333D01*
X95800000Y-52231667D02*
X92060000Y-52231667D01*
X95800000Y-87838333D02*
X95800000Y-52231667D01*
X96040000Y-88078333D02*
X96040000Y-83885000D01*
%TO.C,R6*%
X98140000Y-69830000D02*
X104680000Y-69830000D01*
X98140000Y-70160000D02*
X98140000Y-69830000D01*
X98140000Y-72240000D02*
X98140000Y-72570000D01*
X98140000Y-72570000D02*
X104680000Y-72570000D01*
X104680000Y-69830000D02*
X104680000Y-70160000D01*
X104680000Y-72570000D02*
X104680000Y-72240000D01*
%TD*%
M02*
