%TF.GenerationSoftware,KiCad,Pcbnew,10.0.1*%
%TF.CreationDate,2026-06-26T15:36:38-07:00*%
%TF.ProjectId,LPT Converter,4c505420-436f-46e7-9665-727465722e6b,rev?*%
%TF.SameCoordinates,Original*%
%TF.FileFunction,Copper,L2,Bot*%
%TF.FilePolarity,Positive*%
%FSLAX46Y46*%
G04 Gerber Fmt 4.6, Leading zero omitted, Abs format (unit mm)*
G04 Created by KiCad (PCBNEW 10.0.1) date 2026-06-26 15:36:38*
%MOMM*%
%LPD*%
G01*
G04 APERTURE LIST*
G04 Aperture macros list*
%AMRoundRect*
0 Rectangle with rounded corners*
0 $1 Rounding radius*
0 $2 $3 $4 $5 $6 $7 $8 $9 X,Y pos of 4 corners*
0 Add a 4 corners polygon primitive as box body*
4,1,4,$2,$3,$4,$5,$6,$7,$8,$9,$2,$3,0*
0 Add four circle primitives for the rounded corners*
1,1,$1+$1,$2,$3*
1,1,$1+$1,$4,$5*
1,1,$1+$1,$6,$7*
1,1,$1+$1,$8,$9*
0 Add four rect primitives between the rounded corners*
20,1,$1+$1,$2,$3,$4,$5,0*
20,1,$1+$1,$4,$5,$6,$7,0*
20,1,$1+$1,$6,$7,$8,$9,0*
20,1,$1+$1,$8,$9,$2,$3,0*%
G04 Aperture macros list end*
%TA.AperFunction,ComponentPad*%
%ADD10C,1.600000*%
%TD*%
%TA.AperFunction,SMDPad,CuDef*%
%ADD11RoundRect,0.250000X1.490000X-0.673333X1.490000X0.673333X-1.490000X0.673333X-1.490000X-0.673333X0*%
%TD*%
%TA.AperFunction,SMDPad,CuDef*%
%ADD12RoundRect,0.250000X-1.490000X0.673333X-1.490000X-0.673333X1.490000X-0.673333X1.490000X0.673333X0*%
%TD*%
%TA.AperFunction,ViaPad*%
%ADD13C,0.600000*%
%TD*%
%TA.AperFunction,Conductor*%
%ADD14C,0.200000*%
%TD*%
G04 APERTURE END LIST*
D10*
%TO.P,R3,1*%
%TO.N,Net-(J1-Pad4)*%
X97600000Y-62200000D03*
%TO.P,R3,2*%
%TO.N,Net-(J2-Pad5)*%
X105220000Y-62200000D03*
%TD*%
%TO.P,R8,1*%
%TO.N,Net-(J1-Pad9)*%
X97600000Y-77200000D03*
%TO.P,R8,2*%
%TO.N,Net-(J2-P15)*%
X105220000Y-77200000D03*
%TD*%
%TO.P,R5,1*%
%TO.N,Net-(J1-Pad6)*%
X97600000Y-68200000D03*
%TO.P,R5,2*%
%TO.N,Net-(J2-Pad9)*%
X105220000Y-68200000D03*
%TD*%
%TO.P,R1,1*%
%TO.N,Net-(J1-Pad2)*%
X97600000Y-56200000D03*
%TO.P,R1,2*%
%TO.N,Net-(J2-Pad1)*%
X105220000Y-56200000D03*
%TD*%
%TO.P,R4,1*%
%TO.N,Net-(J1-Pad5)*%
X97600000Y-65200000D03*
%TO.P,R4,2*%
%TO.N,Net-(J2-Pad7)*%
X105220000Y-65200000D03*
%TD*%
%TO.P,R2,1*%
%TO.N,Net-(J1-Pad3)*%
X97600000Y-59200000D03*
%TO.P,R2,2*%
%TO.N,Net-(J2-Pad3)*%
X105220000Y-59200000D03*
%TD*%
%TO.P,R7,1*%
%TO.N,Net-(J1-Pad8)*%
X97600000Y-74200000D03*
%TO.P,R7,2*%
%TO.N,Net-(J2-Pad13)*%
X105220000Y-74200000D03*
%TD*%
D11*
%TO.P,J2,14,P14_14*%
%TO.N,unconnected-(J2-P14-Pad14)*%
X109800000Y-85255000D03*
%TO.P,J2,15,P15_15*%
%TO.N,Net-(J2-P15)*%
X109800000Y-82485000D03*
%TO.P,J2,16,P16_16*%
%TO.N,unconnected-(J2-P16-Pad16)*%
X109800000Y-79715000D03*
%TO.P,J2,17,P17_17*%
%TO.N,unconnected-(J2-P17-Pad17)*%
X109800000Y-76945000D03*
%TO.P,J2,18,P18_18*%
%TO.N,unconnected-(J2-P18-Pad18)*%
X109800000Y-74175000D03*
%TO.P,J2,19,P19_19*%
%TO.N,Net-(J2-P19)*%
X109800000Y-71405000D03*
%TO.P,J2,20,P20_20*%
%TO.N,unconnected-(J2-P20-Pad20)*%
X109800000Y-68635000D03*
%TO.P,J2,21,P21_21*%
%TO.N,Net-(J1-P16)*%
X109800000Y-65865000D03*
%TO.P,J2,22,P22_22*%
%TO.N,Net-(J2-P22)*%
X109800000Y-63095000D03*
%TO.P,J2,23,P23_23*%
%TO.N,unconnected-(J2-P23-Pad23)*%
X109800000Y-60325000D03*
%TO.P,J2,24,P24_24*%
%TO.N,Net-(J1-P17)*%
X109800000Y-57555000D03*
%TO.P,J2,25,P25_25*%
%TO.N,Net-(J2-P25)*%
X109800000Y-54785000D03*
%TD*%
D12*
%TO.P,J1,14,P14_14*%
%TO.N,unconnected-(J1-P14-Pad14)*%
X93800000Y-54800000D03*
%TO.P,J1,15,P15_15*%
%TO.N,unconnected-(J1-P15-Pad15)*%
X93800000Y-57570000D03*
%TO.P,J1,16,P16_16*%
%TO.N,Net-(J1-P16)*%
X93800000Y-60340000D03*
%TO.P,J1,17,P17_17*%
%TO.N,Net-(J1-P17)*%
X93800000Y-63110000D03*
%TO.P,J1,18,P18_18*%
%TO.N,unconnected-(J1-P18-Pad18)*%
X93800000Y-65880000D03*
%TO.P,J1,19,P19_19*%
%TO.N,unconnected-(J1-P19-Pad19)*%
X93800000Y-68650000D03*
%TO.P,J1,20,P20_20*%
%TO.N,unconnected-(J1-P20-Pad20)*%
X93800000Y-71420000D03*
%TO.P,J1,21,P21_21*%
%TO.N,unconnected-(J1-P21-Pad21)*%
X93800000Y-74190000D03*
%TO.P,J1,22,P22_22*%
%TO.N,unconnected-(J1-P22-Pad22)*%
X93800000Y-76960000D03*
%TO.P,J1,23,P23_23*%
%TO.N,unconnected-(J1-P23-Pad23)*%
X93800000Y-79730000D03*
%TO.P,J1,24,P24_24*%
%TO.N,unconnected-(J1-P24-Pad24)*%
X93800000Y-82500000D03*
%TO.P,J1,25,P25_25*%
%TO.N,GND*%
X93800000Y-85270000D03*
%TD*%
D10*
%TO.P,R6,1*%
%TO.N,Net-(J1-Pad7)*%
X97600000Y-71200000D03*
%TO.P,R6,2*%
%TO.N,Net-(J2-Pad11)*%
X105220000Y-71200000D03*
%TD*%
D13*
%TO.N,GND*%
X104200000Y-84600000D03*
%TO.N,Net-(J2-P19)*%
X99000000Y-69800000D03*
%TO.N,Net-(J2-P22)*%
X100600000Y-58600000D03*
%TO.N,Net-(J1-P17)*%
X100200000Y-56600000D03*
X99200000Y-63800000D03*
%TO.N,Net-(J2-P25)*%
X103400000Y-53800000D03*
%TD*%
%TO.N,Net-(J2-P15)*%
D14*
X105220000Y-77200000D02*
X105220000Y-81420000D01*
X105220000Y-81420000D02*
X106285000Y-82485000D01*
X106285000Y-82485000D02*
X109800000Y-82485000D01*
%TO.N,GND*%
X103530000Y-85270000D02*
X104200000Y-84600000D01*
X93800000Y-85270000D02*
X103530000Y-85270000D01*
%TO.N,Net-(J2-P19)*%
X99600000Y-72600000D02*
X106600000Y-72600000D01*
X99000000Y-72000000D02*
X99600000Y-72600000D01*
X107795000Y-71405000D02*
X109800000Y-71405000D01*
X99000000Y-69800000D02*
X99000000Y-72000000D01*
X106600000Y-72600000D02*
X107795000Y-71405000D01*
%TO.N,Net-(J1-P16)*%
X100000000Y-60800000D02*
X99800000Y-60600000D01*
X106200000Y-60800000D02*
X100000000Y-60800000D01*
X96400000Y-60600000D02*
X96140000Y-60340000D01*
X106800000Y-65200000D02*
X106800000Y-61400000D01*
X107465000Y-65865000D02*
X106800000Y-65200000D01*
X109800000Y-65865000D02*
X107465000Y-65865000D01*
X96140000Y-60340000D02*
X93800000Y-60340000D01*
X106800000Y-61400000D02*
X106200000Y-60800000D01*
X99800000Y-60600000D02*
X96400000Y-60600000D01*
%TO.N,Net-(J2-P22)*%
X100600000Y-59600000D02*
X101400000Y-60400000D01*
X106365685Y-60400000D02*
X107200000Y-61234314D01*
X101400000Y-60400000D02*
X106365685Y-60400000D01*
X107200000Y-61234314D02*
X107200000Y-62400000D01*
X100600000Y-58600000D02*
X100600000Y-59600000D01*
X107200000Y-62400000D02*
X107895000Y-63095000D01*
X107895000Y-63095000D02*
X109800000Y-63095000D01*
%TO.N,Net-(J1-P17)*%
X109800000Y-57555000D02*
X101155000Y-57555000D01*
X101155000Y-57555000D02*
X100200000Y-56600000D01*
X95710000Y-63110000D02*
X93800000Y-63110000D01*
X96400000Y-63800000D02*
X95710000Y-63110000D01*
X99200000Y-63800000D02*
X96400000Y-63800000D01*
%TO.N,Net-(J2-P25)*%
X106385000Y-54785000D02*
X109800000Y-54785000D01*
X103400000Y-53800000D02*
X105400000Y-53800000D01*
X105400000Y-53800000D02*
X106385000Y-54785000D01*
%TD*%
M02*
