G04 #@! TF.GenerationSoftware,KiCad,Pcbnew,10.0.1*
G04 #@! TF.CreationDate,2026-06-30T15:46:30-07:00*
G04 #@! TF.ProjectId,Pico_FZ1_OLED_PCB,5069636f-5f46-45a3-915f-4f4c45445f50,rev?*
G04 #@! TF.SameCoordinates,Original*
G04 #@! TF.FileFunction,Soldermask,Bot*
G04 #@! TF.FilePolarity,Negative*
%FSLAX46Y46*%
G04 Gerber Fmt 4.6, Leading zero omitted, Abs format (unit mm)*
G04 Created by KiCad (PCBNEW 10.0.1) date 2026-06-30 15:46:30*
%MOMM*%
%LPD*%
G01*
G04 APERTURE LIST*
G04 Aperture macros list*
%AMRoundRect*
0 Rectangle with rounded corners*
0 $1 Rounding radius*
0 $2 $3 $4 $5 $6 $7 $8 $9 X,Y pos of 4 corners*
0 Add a 4 corners polygon primitive as box body*
4,1,4,$2,$3,$4,$5,$6,$7,$8,$9,$2,$3,0*
0 Add four circle primitives for the rounded corners*
1,1,$1+$1,$2,$3*
1,1,$1+$1,$4,$5*
1,1,$1+$1,$6,$7*
1,1,$1+$1,$8,$9*
0 Add four rect primitives between the rounded corners*
20,1,$1+$1,$2,$3,$4,$5,0*
20,1,$1+$1,$4,$5,$6,$7,0*
20,1,$1+$1,$6,$7,$8,$9,0*
20,1,$1+$1,$8,$9,$2,$3,0*%
%AMFreePoly0*
4,1,37,0.603843,0.796157,0.639018,0.796157,0.711114,0.766294,0.766294,0.711114,0.796157,0.639018,0.796157,0.603843,0.800000,0.600000,0.800000,-0.600000,0.796157,-0.603843,0.796157,-0.639018,0.766294,-0.711114,0.711114,-0.766294,0.639018,-0.796157,0.603843,-0.796157,0.600000,-0.800000,0.000000,-0.800000,0.000000,-0.796148,-0.078414,-0.796148,-0.232228,-0.765552,-0.377117,-0.705537,
-0.507515,-0.618408,-0.618408,-0.507515,-0.705537,-0.377117,-0.765552,-0.232228,-0.796148,-0.078414,-0.796148,0.078414,-0.765552,0.232228,-0.705537,0.377117,-0.618408,0.507515,-0.507515,0.618408,-0.377117,0.705537,-0.232228,0.765552,-0.078414,0.796148,0.000000,0.796148,0.000000,0.800000,0.600000,0.800000,0.603843,0.796157,0.603843,0.796157,$1*%
%AMFreePoly1*
4,1,37,0.000000,0.796148,0.078414,0.796148,0.232228,0.765552,0.377117,0.705537,0.507515,0.618408,0.618408,0.507515,0.705537,0.377117,0.765552,0.232228,0.796148,0.078414,0.796148,-0.078414,0.765552,-0.232228,0.705537,-0.377117,0.618408,-0.507515,0.507515,-0.618408,0.377117,-0.705537,0.232228,-0.765552,0.078414,-0.796148,0.000000,-0.796148,0.000000,-0.800000,-0.600000,-0.800000,
-0.603843,-0.796157,-0.639018,-0.796157,-0.711114,-0.766294,-0.766294,-0.711114,-0.796157,-0.639018,-0.796157,-0.603843,-0.800000,-0.600000,-0.800000,0.600000,-0.796157,0.603843,-0.796157,0.639018,-0.766294,0.711114,-0.711114,0.766294,-0.639018,0.796157,-0.603843,0.796157,-0.600000,0.800000,0.000000,0.800000,0.000000,0.796148,0.000000,0.796148,$1*%
G04 Aperture macros list end*
%ADD10C,0.500000*%
%ADD11C,2.200000*%
%ADD12C,1.850000*%
%ADD13RoundRect,0.200000X-0.600000X-0.600000X0.600000X-0.600000X0.600000X0.600000X-0.600000X0.600000X0*%
%ADD14C,1.600000*%
%ADD15FreePoly0,0.000000*%
%ADD16FreePoly1,0.000000*%
%ADD17R,1.350000X1.350000*%
%ADD18C,1.350000*%
%ADD19R,1.700000X1.700000*%
%ADD20C,1.700000*%
%ADD21C,3.000000*%
%ADD22C,4.700000*%
G04 APERTURE END LIST*
D10*
X145000000Y-47155000D03*
X145000000Y-46305000D03*
X145000000Y-45455000D03*
X145000000Y-44605000D03*
X145000000Y-43755000D03*
X145000000Y-42905000D03*
X145000000Y-42055000D03*
X145000000Y-41205000D03*
X145000000Y-40355000D03*
X145000000Y-54800000D03*
X145000000Y-53950000D03*
X145000000Y-53100000D03*
X145000000Y-52250000D03*
X145000000Y-51400000D03*
X145000000Y-50550000D03*
X145000000Y-49700000D03*
X145000000Y-48850000D03*
X145000000Y-48000000D03*
X145000000Y-39500000D03*
X145000000Y-38650000D03*
X145000000Y-37800000D03*
X145000000Y-36950000D03*
X145000000Y-36100000D03*
X145000000Y-35250000D03*
X145000000Y-34400000D03*
X145000000Y-138100000D03*
X145000000Y-137250000D03*
X145000000Y-136400000D03*
X145000000Y-135550000D03*
X145000000Y-134700000D03*
X145000000Y-133850000D03*
X145000000Y-133000000D03*
X145000000Y-145755000D03*
X145000000Y-144905000D03*
X145000000Y-144055000D03*
X145000000Y-143205000D03*
X145000000Y-142355000D03*
X145000000Y-141505000D03*
X145000000Y-140655000D03*
X145000000Y-139805000D03*
X145000000Y-138955000D03*
X145000000Y-153400000D03*
X145000000Y-152550000D03*
X145000000Y-151700000D03*
X145000000Y-150850000D03*
X145000000Y-150000000D03*
X145000000Y-149150000D03*
X145000000Y-148300000D03*
X145000000Y-147450000D03*
X145000000Y-146600000D03*
X145000000Y-130800000D03*
X145000000Y-129950000D03*
X145000000Y-129100000D03*
X145000000Y-128250000D03*
X145000000Y-127400000D03*
X145000000Y-88309200D03*
X145000000Y-87459200D03*
X145000000Y-86609200D03*
X145000000Y-85759200D03*
X145000000Y-84909200D03*
X145000000Y-84059200D03*
X145000000Y-83209200D03*
X145000000Y-82359200D03*
X145000000Y-81509200D03*
X145000000Y-118906200D03*
X145000000Y-118056200D03*
X145000000Y-117206200D03*
X145000000Y-116356200D03*
X145000000Y-115506200D03*
X145000000Y-114656200D03*
X145000000Y-113806200D03*
X145000000Y-112956200D03*
X145000000Y-112106200D03*
X145000000Y-126551200D03*
X145000000Y-125701200D03*
X145000000Y-124851200D03*
X145000000Y-124001200D03*
X145000000Y-123151200D03*
X145000000Y-122301200D03*
X145000000Y-121451200D03*
X145000000Y-120601200D03*
X145000000Y-119751200D03*
X145000000Y-111245000D03*
X145000000Y-110395000D03*
X145000000Y-109545000D03*
X145000000Y-108695000D03*
X145000000Y-107845000D03*
X145000000Y-106995000D03*
X145000000Y-106145000D03*
X145000000Y-105295000D03*
X145000000Y-104445000D03*
X145000000Y-65321800D03*
X145000000Y-64471800D03*
X145000000Y-63621800D03*
X145000000Y-62771800D03*
X145000000Y-61921800D03*
X145000000Y-61071800D03*
X145000000Y-60221800D03*
X145000000Y-59371800D03*
X145000000Y-58521800D03*
X145000000Y-72993000D03*
X145000000Y-72143000D03*
X145000000Y-71293000D03*
X145000000Y-70443000D03*
X145000000Y-69593000D03*
X145000000Y-68743000D03*
X145000000Y-67893000D03*
X145000000Y-67043000D03*
X145000000Y-66193000D03*
X145000000Y-57647800D03*
X145000000Y-56797800D03*
X145000000Y-80638000D03*
X145000000Y-79788000D03*
X145000000Y-78938000D03*
X145000000Y-78088000D03*
X145000000Y-77238000D03*
X145000000Y-76388000D03*
X145000000Y-75538000D03*
X145000000Y-74688000D03*
X145000000Y-73838000D03*
X145000000Y-103600000D03*
X145000000Y-102750000D03*
X145000000Y-101900000D03*
X145000000Y-101050000D03*
X145000000Y-100200000D03*
X145000000Y-99350000D03*
X145000000Y-98500000D03*
X145000000Y-97650000D03*
X145000000Y-96800000D03*
D11*
X116403236Y-69855299D03*
D12*
X116703236Y-72885299D03*
X121553236Y-72885299D03*
D11*
X121853236Y-69855299D03*
D13*
X110238236Y-69725299D03*
D14*
X110238236Y-72265299D03*
D15*
X110238236Y-74805299D03*
D14*
X110238236Y-77345299D03*
X110238236Y-79885299D03*
X110238236Y-82425299D03*
X110238236Y-84965299D03*
D15*
X110238236Y-87505299D03*
D14*
X110238236Y-90045299D03*
X110238236Y-92585299D03*
X110238236Y-95125299D03*
X110238236Y-97665299D03*
D15*
X110238236Y-100205299D03*
D14*
X110238236Y-102745299D03*
X110238236Y-105285299D03*
X110238236Y-107825299D03*
X110238236Y-110365299D03*
D15*
X110238236Y-112905299D03*
D14*
X110238236Y-115445299D03*
X110238236Y-117985299D03*
X128018236Y-117985299D03*
X128018236Y-115445299D03*
D16*
X128018236Y-112905299D03*
D14*
X128018236Y-110365299D03*
X128018236Y-107825299D03*
X128018236Y-105285299D03*
X128018236Y-102745299D03*
D16*
X128018236Y-100205299D03*
D14*
X128018236Y-97665299D03*
X128018236Y-95125299D03*
X128018236Y-92585299D03*
X128018236Y-90045299D03*
D16*
X128018236Y-87505299D03*
D14*
X128018236Y-84965299D03*
X128018236Y-82425299D03*
X128018236Y-79885299D03*
X128018236Y-77345299D03*
D16*
X128018236Y-74805299D03*
D14*
X128018236Y-72265299D03*
X128018236Y-69725299D03*
D17*
X85000000Y-100000000D03*
D18*
X87000000Y-100000000D03*
X85000000Y-102000000D03*
X87000000Y-102000000D03*
X85000000Y-104000000D03*
X87000000Y-104000000D03*
X85000000Y-106000000D03*
X87000000Y-106000000D03*
X85000000Y-108000000D03*
X87000000Y-108000000D03*
D19*
X109460000Y-127700000D03*
D20*
X112000000Y-127700000D03*
X114540000Y-127700000D03*
X117080000Y-127700000D03*
X119620000Y-127700000D03*
X122160000Y-127700000D03*
X124700000Y-127700000D03*
D10*
X105475800Y-56032400D03*
X106325800Y-56032400D03*
X107175800Y-56032400D03*
X108025800Y-56032400D03*
X108875800Y-56032400D03*
X109725800Y-56032400D03*
X110575800Y-56032400D03*
X111425800Y-56032400D03*
X112275800Y-56032400D03*
X90245800Y-132029200D03*
X91095800Y-132029200D03*
X91945800Y-132029200D03*
X92795800Y-132029200D03*
X93645800Y-132029200D03*
X94495800Y-132029200D03*
X95345800Y-132029200D03*
X96195800Y-132029200D03*
X97045800Y-132029200D03*
D21*
X89328236Y-127917799D03*
D10*
X128514000Y-132029200D03*
X129364000Y-132029200D03*
X130214000Y-132029200D03*
X131064000Y-132029200D03*
X131914000Y-132029200D03*
X132764000Y-132029200D03*
X133614000Y-132029200D03*
X134464000Y-132029200D03*
X135314000Y-132029200D03*
X136159000Y-132029200D03*
X137009000Y-132029200D03*
X137859000Y-132029200D03*
X138709000Y-132029200D03*
X139559000Y-132029200D03*
X140409000Y-132029200D03*
X141259000Y-132029200D03*
X142109000Y-132029200D03*
X142959000Y-132029200D03*
X105552000Y-132029200D03*
X106402000Y-132029200D03*
X107252000Y-132029200D03*
X108102000Y-132029200D03*
X108952000Y-132029200D03*
X109802000Y-132029200D03*
X110652000Y-132029200D03*
X111502000Y-132029200D03*
X112352000Y-132029200D03*
D14*
X93808236Y-103917799D03*
X101428236Y-103917799D03*
D10*
X128437800Y-56032400D03*
X129287800Y-56032400D03*
X130137800Y-56032400D03*
X130987800Y-56032400D03*
X131837800Y-56032400D03*
X132687800Y-56032400D03*
X133537800Y-56032400D03*
X134387800Y-56032400D03*
X135237800Y-56032400D03*
X97907000Y-132029200D03*
X98757000Y-132029200D03*
X99607000Y-132029200D03*
X100457000Y-132029200D03*
X101307000Y-132029200D03*
X102157000Y-132029200D03*
X103007000Y-132029200D03*
X103857000Y-132029200D03*
X104707000Y-132029200D03*
X151428000Y-56032400D03*
X152278000Y-56032400D03*
D21*
X147328236Y-59917799D03*
D14*
X93808236Y-87717799D03*
X101428236Y-87717799D03*
X93808236Y-83667799D03*
X101428236Y-83667799D03*
D17*
X85000000Y-80000000D03*
D18*
X87000000Y-80000000D03*
X85000000Y-82000000D03*
X87000000Y-82000000D03*
X85000000Y-84000000D03*
X87000000Y-84000000D03*
X85000000Y-86000000D03*
X87000000Y-86000000D03*
X85000000Y-88000000D03*
X87000000Y-88000000D03*
D10*
X113121600Y-56032400D03*
X113971600Y-56032400D03*
X114821600Y-56032400D03*
X115671600Y-56032400D03*
X116521600Y-56032400D03*
X117371600Y-56032400D03*
X118221600Y-56032400D03*
X119071600Y-56032400D03*
X119921600Y-56032400D03*
X136082800Y-56032400D03*
X136932800Y-56032400D03*
X137782800Y-56032400D03*
X138632800Y-56032400D03*
X139482800Y-56032400D03*
X140332800Y-56032400D03*
X141182800Y-56032400D03*
X142032800Y-56032400D03*
X142882800Y-56032400D03*
D14*
X93808236Y-91767799D03*
X101428236Y-91767799D03*
D22*
X118710000Y-148930000D03*
D10*
X113197800Y-132029200D03*
X114047800Y-132029200D03*
X114897800Y-132029200D03*
X115747800Y-132029200D03*
X116597800Y-132029200D03*
X117447800Y-132029200D03*
X118297800Y-132029200D03*
X119147800Y-132029200D03*
X119997800Y-132029200D03*
D14*
X93808236Y-112017799D03*
X101428236Y-112017799D03*
X93808236Y-75567799D03*
X101428236Y-75567799D03*
D21*
X132750000Y-148890000D03*
D10*
X120842800Y-132029200D03*
X121692800Y-132029200D03*
X122542800Y-132029200D03*
X123392800Y-132029200D03*
X124242800Y-132029200D03*
X125092800Y-132029200D03*
X125942800Y-132029200D03*
X126792800Y-132029200D03*
X127642800Y-132029200D03*
D19*
X136728236Y-86297799D03*
D20*
X136728236Y-88837799D03*
X136728236Y-91377799D03*
X136728236Y-93917799D03*
X136728236Y-96457799D03*
X136728236Y-98997799D03*
X136728236Y-101537799D03*
D10*
X143754000Y-56032400D03*
X144604000Y-56032400D03*
X145454000Y-56032400D03*
X146304000Y-56032400D03*
X147154000Y-56032400D03*
X148004000Y-56032400D03*
X148854000Y-56032400D03*
X149704000Y-56032400D03*
X150554000Y-56032400D03*
D21*
X93750000Y-148890000D03*
X147328236Y-127917799D03*
D14*
X93808236Y-79617799D03*
X101428236Y-79617799D03*
D21*
X132750000Y-38890000D03*
D22*
X118710000Y-38810000D03*
D10*
X82600800Y-132029200D03*
X83450800Y-132029200D03*
X84300800Y-132029200D03*
X85150800Y-132029200D03*
X86000800Y-132029200D03*
X86850800Y-132029200D03*
X87700800Y-132029200D03*
X88550800Y-132029200D03*
X89400800Y-132029200D03*
X151504200Y-132029200D03*
X152354200Y-132029200D03*
D14*
X93808236Y-67467799D03*
X101428236Y-67467799D03*
D10*
X97830800Y-56032400D03*
X98680800Y-56032400D03*
X99530800Y-56032400D03*
X100380800Y-56032400D03*
X101230800Y-56032400D03*
X102080800Y-56032400D03*
X102930800Y-56032400D03*
X103780800Y-56032400D03*
X104630800Y-56032400D03*
D14*
X93808236Y-99867799D03*
X101428236Y-99867799D03*
D10*
X82524600Y-56032400D03*
X83374600Y-56032400D03*
X84224600Y-56032400D03*
X85074600Y-56032400D03*
X85924600Y-56032400D03*
X86774600Y-56032400D03*
X87624600Y-56032400D03*
X88474600Y-56032400D03*
X89324600Y-56032400D03*
D14*
X93808236Y-107967799D03*
X101428236Y-107967799D03*
X93808236Y-71517799D03*
X101428236Y-71517799D03*
D21*
X89328236Y-59917799D03*
X93750000Y-38890000D03*
D14*
X93808236Y-95817799D03*
X101428236Y-95817799D03*
X93808236Y-116067799D03*
X101428236Y-116067799D03*
D10*
X143830200Y-132029200D03*
X144680200Y-132029200D03*
X145530200Y-132029200D03*
X146380200Y-132029200D03*
X147230200Y-132029200D03*
X148080200Y-132029200D03*
X148930200Y-132029200D03*
X149780200Y-132029200D03*
X150630200Y-132029200D03*
X90169600Y-56032400D03*
X91019600Y-56032400D03*
X91869600Y-56032400D03*
X92719600Y-56032400D03*
X93569600Y-56032400D03*
X94419600Y-56032400D03*
X95269600Y-56032400D03*
X96119600Y-56032400D03*
X96969600Y-56032400D03*
D14*
X93808236Y-120117799D03*
X101428236Y-120117799D03*
D10*
X120766600Y-56032400D03*
X121616600Y-56032400D03*
X122466600Y-56032400D03*
X123316600Y-56032400D03*
X124166600Y-56032400D03*
X125016600Y-56032400D03*
X125866600Y-56032400D03*
X126716600Y-56032400D03*
X127566600Y-56032400D03*
X145000000Y-95954200D03*
X145000000Y-95104200D03*
X145000000Y-94254200D03*
X145000000Y-93404200D03*
X145000000Y-92554200D03*
X145000000Y-91704200D03*
X145000000Y-90854200D03*
X145000000Y-90004200D03*
X145000000Y-89154200D03*
M02*
