M48
; DRILL file KiCad 10.0.1 date 2026-06-30T15:46:28
; FORMAT={-:-/ absolute / metric / decimal}
; #@! TF.CreationDate,2026-06-30T15:46:28-07:00
; #@! TF.GenerationSoftware,Kicad,Pcbnew,10.0.1
; #@! TF.FileFunction,NonPlated,1,2,NPTH
FMAT,2
METRIC
; #@! TA.AperFunction,NonPlated,NPTH,ComponentDrill
T1C0.500
; #@! TA.AperFunction,NonPlated,NPTH,ComponentDrill
T2C1.850
; #@! TA.AperFunction,NonPlated,NPTH,ComponentDrill
T3C2.200
; #@! TA.AperFunction,NonPlated,NPTH,ComponentDrill
T4C3.000
; #@! TA.AperFunction,NonPlated,NPTH,ComponentDrill
T5C4.700
%
G90
G05
T1
X82.525Y-56.032
X82.601Y-132.029
X83.375Y-56.032
X83.451Y-132.029
X84.225Y-56.032
X84.301Y-132.029
X85.075Y-56.032
X85.151Y-132.029
X85.925Y-56.032
X86.001Y-132.029
X86.775Y-56.032
X86.851Y-132.029
X87.625Y-56.032
X87.701Y-132.029
X88.475Y-56.032
X88.551Y-132.029
X89.325Y-56.032
X89.401Y-132.029
X90.17Y-56.032
X90.246Y-132.029
X91.02Y-56.032
X91.096Y-132.029
X91.87Y-56.032
X91.946Y-132.029
X92.72Y-56.032
X92.796Y-132.029
X93.57Y-56.032
X93.646Y-132.029
X94.42Y-56.032
X94.496Y-132.029
X95.27Y-56.032
X95.346Y-132.029
X96.12Y-56.032
X96.196Y-132.029
X96.97Y-56.032
X97.046Y-132.029
X97.831Y-56.032
X97.907Y-132.029
X98.681Y-56.032
X98.757Y-132.029
X99.531Y-56.032
X99.607Y-132.029
X100.381Y-56.032
X100.457Y-132.029
X101.231Y-56.032
X101.307Y-132.029
X102.081Y-56.032
X102.157Y-132.029
X102.931Y-56.032
X103.007Y-132.029
X103.781Y-56.032
X103.857Y-132.029
X104.631Y-56.032
X104.707Y-132.029
X105.476Y-56.032
X105.552Y-132.029
X106.326Y-56.032
X106.402Y-132.029
X107.176Y-56.032
X107.252Y-132.029
X108.026Y-56.032
X108.102Y-132.029
X108.876Y-56.032
X108.952Y-132.029
X109.726Y-56.032
X109.802Y-132.029
X110.576Y-56.032
X110.652Y-132.029
X111.426Y-56.032
X111.502Y-132.029
X112.276Y-56.032
X112.352Y-132.029
X113.122Y-56.032
X113.198Y-132.029
X113.972Y-56.032
X114.048Y-132.029
X114.822Y-56.032
X114.898Y-132.029
X115.672Y-56.032
X115.748Y-132.029
X116.522Y-56.032
X116.598Y-132.029
X117.372Y-56.032
X117.448Y-132.029
X118.222Y-56.032
X118.298Y-132.029
X119.072Y-56.032
X119.148Y-132.029
X119.922Y-56.032
X119.998Y-132.029
X120.767Y-56.032
X120.843Y-132.029
X121.617Y-56.032
X121.693Y-132.029
X122.467Y-56.032
X122.543Y-132.029
X123.317Y-56.032
X123.393Y-132.029
X124.167Y-56.032
X124.243Y-132.029
X125.017Y-56.032
X125.093Y-132.029
X125.867Y-56.032
X125.943Y-132.029
X126.717Y-56.032
X126.793Y-132.029
X127.567Y-56.032
X127.643Y-132.029
X128.438Y-56.032
X128.514Y-132.029
X129.288Y-56.032
X129.364Y-132.029
X130.138Y-56.032
X130.214Y-132.029
X130.988Y-56.032
X131.064Y-132.029
X131.838Y-56.032
X131.914Y-132.029
X132.688Y-56.032
X132.764Y-132.029
X133.538Y-56.032
X133.614Y-132.029
X134.388Y-56.032
X134.464Y-132.029
X135.238Y-56.032
X135.314Y-132.029
X136.083Y-56.032
X136.159Y-132.029
X136.933Y-56.032
X137.009Y-132.029
X137.783Y-56.032
X137.859Y-132.029
X138.633Y-56.032
X138.709Y-132.029
X139.483Y-56.032
X139.559Y-132.029
X140.333Y-56.032
X140.409Y-132.029
X141.183Y-56.032
X141.259Y-132.029
X142.033Y-56.032
X142.109Y-132.029
X142.883Y-56.032
X142.959Y-132.029
X143.754Y-56.032
X143.83Y-132.029
X144.604Y-56.032
X144.68Y-132.029
X145.0Y-34.4
X145.0Y-35.25
X145.0Y-36.1
X145.0Y-36.95
X145.0Y-37.8
X145.0Y-38.65
X145.0Y-39.5
X145.0Y-40.355
X145.0Y-41.205
X145.0Y-42.055
X145.0Y-42.905
X145.0Y-43.755
X145.0Y-44.605
X145.0Y-45.455
X145.0Y-46.305
X145.0Y-47.155
X145.0Y-48.0
X145.0Y-48.85
X145.0Y-49.7
X145.0Y-50.55
X145.0Y-51.4
X145.0Y-52.25
X145.0Y-53.1
X145.0Y-53.95
X145.0Y-54.8
X145.0Y-56.798
X145.0Y-57.648
X145.0Y-58.522
X145.0Y-59.372
X145.0Y-60.222
X145.0Y-61.072
X145.0Y-61.922
X145.0Y-62.772
X145.0Y-63.622
X145.0Y-64.472
X145.0Y-65.322
X145.0Y-66.193
X145.0Y-67.043
X145.0Y-67.893
X145.0Y-68.743
X145.0Y-69.593
X145.0Y-70.443
X145.0Y-71.293
X145.0Y-72.143
X145.0Y-72.993
X145.0Y-73.838
X145.0Y-74.688
X145.0Y-75.538
X145.0Y-76.388
X145.0Y-77.238
X145.0Y-78.088
X145.0Y-78.938
X145.0Y-79.788
X145.0Y-80.638
X145.0Y-81.509
X145.0Y-82.359
X145.0Y-83.209
X145.0Y-84.059
X145.0Y-84.909
X145.0Y-85.759
X145.0Y-86.609
X145.0Y-87.459
X145.0Y-88.309
X145.0Y-89.154
X145.0Y-90.004
X145.0Y-90.854
X145.0Y-91.704
X145.0Y-92.554
X145.0Y-93.404
X145.0Y-94.254
X145.0Y-95.104
X145.0Y-95.954
X145.0Y-96.8
X145.0Y-97.65
X145.0Y-98.5
X145.0Y-99.35
X145.0Y-100.2
X145.0Y-101.05
X145.0Y-101.9
X145.0Y-102.75
X145.0Y-103.6
X145.0Y-104.445
X145.0Y-105.295
X145.0Y-106.145
X145.0Y-106.995
X145.0Y-107.845
X145.0Y-108.695
X145.0Y-109.545
X145.0Y-110.395
X145.0Y-111.245
X145.0Y-112.106
X145.0Y-112.956
X145.0Y-113.806
X145.0Y-114.656
X145.0Y-115.506
X145.0Y-116.356
X145.0Y-117.206
X145.0Y-118.056
X145.0Y-118.906
X145.0Y-119.751
X145.0Y-120.601
X145.0Y-121.451
X145.0Y-122.301
X145.0Y-123.151
X145.0Y-124.001
X145.0Y-124.851
X145.0Y-125.701
X145.0Y-126.551
X145.0Y-127.4
X145.0Y-128.25
X145.0Y-129.1
X145.0Y-129.95
X145.0Y-130.8
X145.0Y-133.0
X145.0Y-133.85
X145.0Y-134.7
X145.0Y-135.55
X145.0Y-136.4
X145.0Y-137.25
X145.0Y-138.1
X145.0Y-138.955
X145.0Y-139.805
X145.0Y-140.655
X145.0Y-141.505
X145.0Y-142.355
X145.0Y-143.205
X145.0Y-144.055
X145.0Y-144.905
X145.0Y-145.755
X145.0Y-146.6
X145.0Y-147.45
X145.0Y-148.3
X145.0Y-149.15
X145.0Y-150.0
X145.0Y-150.85
X145.0Y-151.7
X145.0Y-152.55
X145.0Y-153.4
X145.454Y-56.032
X145.53Y-132.029
X146.304Y-56.032
X146.38Y-132.029
X147.154Y-56.032
X147.23Y-132.029
X148.004Y-56.032
X148.08Y-132.029
X148.854Y-56.032
X148.93Y-132.029
X149.704Y-56.032
X149.78Y-132.029
X150.554Y-56.032
X150.63Y-132.029
X151.428Y-56.032
X151.504Y-132.029
X152.278Y-56.032
X152.354Y-132.029
T2
X116.703Y-72.885
X121.553Y-72.885
T3
X116.403Y-69.855
X121.853Y-69.855
T4
X89.328Y-59.918
X89.328Y-127.918
X93.75Y-38.89
X93.75Y-148.89
X132.75Y-38.89
X132.75Y-148.89
X147.328Y-59.918
X147.328Y-127.918
T5
X118.71Y-38.81
X118.71Y-148.93
M30
