M48
; DRILL file {KiCad 9.0.5} date 2025-10-28T09:42:02-0700
; FORMAT={-:-/ absolute / inch / decimal}
; #@! TF.CreationDate,2025-10-28T09:42:02-07:00
; #@! TF.GenerationSoftware,Kicad,Pcbnew,9.0.5
; #@! TF.FileFunction,Plated,1,2,PTH
FMAT,2
INCH
; #@! TA.AperFunction,Plated,PTH,ComponentDrill
T1C0.0256
; #@! TA.AperFunction,Plated,PTH,ComponentDrill
T2C0.0315
%
G90
G05
T1
X6.248Y-2.5758
X6.248Y-2.6258
X6.248Y-2.6758
X6.248Y-2.7258
X6.248Y-2.7758
X6.248Y-2.8258
X6.248Y-2.8758
X6.248Y-2.9258
X6.248Y-2.9758
X6.248Y-3.0258
X6.298Y-2.5758
X6.298Y-2.6258
X6.298Y-2.6758
X6.298Y-2.7258
X6.298Y-2.7758
X6.298Y-2.8258
X6.298Y-2.8758
X6.298Y-2.9258
X6.298Y-2.9758
X6.298Y-3.0258
T2
X6.5148Y-2.6457
X6.5148Y-2.7244
X6.5148Y-2.8031
X6.5148Y-2.8819
X6.5148Y-2.9606
X6.5935Y-2.6457
X6.5935Y-2.7244
X6.5935Y-2.8031
X6.5935Y-2.8819
X6.5935Y-2.9606
M30
